<svg width="82" height="81" viewBox="0 0 82 81" fill="none" xmlns="http://www.w3.org/2000/svg">
<path d="M41.222 5.13477C21.9173 5.13477 6.22205 20.8301 6.22205 40.1348C6.22205 59.4395 21.9173 75.1348 41.222 75.1348C60.5267 75.1348 76.222 59.4395 76.222 40.1348C76.222 20.8301 60.5267 5.13477 41.222 5.13477Z" fill="#FDDD4C"/>
<path d="M25.8941 49.2604C25.1288 48.1017 27.0537 46.3481 26.2708 44.8758C25.8194 44.0266 25.0817 43.4975 24.1958 43.3864C23.3455 43.2797 22.4696 43.591 21.9113 44.1993C21.0299 45.1585 20.8928 46.4642 21.0633 46.9262C21.1257 47.0956 21.2238 47.1418 21.294 47.1517C21.7741 47.2149 22.0442 45.9827 22.21 45.7261C22.6683 45.0187 23.7089 44.8047 24.4276 45.2696C25.7903 46.151 24.6087 47.5754 24.7106 48.7786C24.8098 49.9501 25.5397 50.4209 26.195 50.4704C26.8324 50.4946 27.2782 50.1404 27.3907 49.8819C27.6606 49.2648 26.5238 50.2137 25.8941 49.2604Z" fill="black"/>
<path d="M54.3663 38.6246C54.0088 38.5751 53.6181 38.5763 53.2118 38.6246C52.9031 38.2352 52.6267 37.6048 52.4707 36.869C52.1932 35.56 52.2222 34.6118 52.9967 34.4886C53.7712 34.3654 54.1456 35.1574 54.4231 36.4664C54.6092 37.3464 54.5735 38.1549 54.3663 38.6246Z" fill="black"/>
<path d="M45.8835 39.4031C45.9142 39.6995 45.925 39.9994 45.9163 40.2756C46.6657 40.3196 47.1965 40.6755 47.3378 40.9013C47.4103 41.0179 47.3813 41.0938 47.3579 41.129C47.2804 41.2497 47.1141 41.2311 46.7658 41.192C46.4616 41.1578 46.134 41.1278 45.7936 41.1435C45.6083 41.7116 45.059 41.7648 44.6731 41.3446C44.4035 41.4268 43.8739 41.765 43.7161 41.3974C43.7147 41.2151 43.9054 40.95 44.2508 40.7159C44.015 40.2663 43.857 39.7848 43.7637 39.2864C43.2741 39.3746 42.8337 39.5117 42.4885 39.6192C42.3264 39.6697 41.6851 39.9593 41.61 39.6329C41.5598 39.4074 41.9109 39.0356 42.282 38.7672C42.6966 38.4728 43.1566 38.2636 43.6335 38.1428C43.6232 37.4328 43.8044 36.9375 44.3202 36.8555C44.9598 36.7537 45.3562 37.2461 45.6305 38.158C46.4035 38.3727 47.1754 38.9053 47.5161 39.4558C47.6488 39.6692 47.6744 39.8342 47.5886 39.9211C47.3743 40.1431 46.1875 39.4995 45.8835 39.4031Z" fill="black"/>
<path d="M50.9664 42.5942C51.4567 42.8318 51.9961 42.7383 52.1721 42.3852C52.3482 42.0321 52.093 41.5536 51.6027 41.316C51.1124 41.0784 50.573 41.1719 50.3969 41.525C50.2209 41.8781 50.4761 42.3566 50.9664 42.5942Z" fill="black"/>
<path d="M53.3799 40.8408C53.3888 40.3007 53.7198 39.8695 54.1176 39.8761C54.5155 39.8838 54.8308 40.326 54.8219 40.865C54.813 41.404 54.482 41.8352 54.0842 41.8286C53.6864 41.822 53.371 41.3798 53.3799 40.8408Z" fill="black"/>
<path fill-rule="evenodd" clip-rule="evenodd" d="M64.1683 47.4551C64.1651 47.4439 64.1761 47.4827 64.1683 47.4551C64.9673 47.4551 66.2221 48.3615 66.2221 50.5516C66.2221 52.7307 65.3061 55.1991 65.0899 55.7469C61.7903 63.5525 53.915 67.8975 44.5342 67.6225C35.7886 67.3662 28.3301 62.8111 25.0662 55.385C23.0926 55.3872 21.0578 54.5303 19.511 53.1773C17.8807 51.7517 16.8755 49.907 16.6794 47.9831C16.5267 46.4849 16.7128 45.0912 17.1887 43.8758L15.3555 42.3424C6.9665 35.3508 33.2044 6.56386 41.5956 13.7887C41.638 13.825 44.4506 16.5485 44.4573 16.5551C48.5034 14.8594 59.3443 11.6308 59.3565 19.1467C59.3609 21.6426 57.7495 24.5532 55.1675 27.1943C58.1515 29.9259 57.3646 33.806 57.8398 37.366L58.8762 37.6498C60.852 38.1965 62.2572 38.9258 62.9447 39.6386C63.6323 40.3503 63.9733 41.04 64.097 41.8485C64.2129 42.5008 64.1973 43.6524 63.3259 44.9405C63.6396 45.7715 63.9261 46.5999 64.1683 47.4551ZM24.9179 53.3599C25.211 53.3665 25.5019 53.3478 25.7872 53.2994C28.8528 52.7835 29.6551 49.4967 29.1503 46.2693C28.5798 42.6251 26.0825 41.3403 24.3875 41.249C23.9161 41.2248 23.4782 41.2666 23.1171 41.3381C20.0916 41.9398 18.3833 44.4807 18.7198 47.7807C19.024 50.7672 22.0841 53.2851 24.9179 53.3599ZM18.0657 42.2335C19.0809 40.7782 20.7402 39.7255 22.6235 39.3636C25.0205 33.0122 29.0233 27.1602 34.321 23.1331C38.2525 19.8958 42.4927 17.5737 42.4927 17.5737C42.4927 17.5737 40.2093 14.9602 39.5195 14.7677C35.2771 13.6369 26.1148 19.8738 20.2643 28.115C17.8974 31.4491 14.5086 37.3539 16.1289 40.391C16.3284 40.7672 17.4595 41.7341 18.0657 42.2335ZM52.4607 51.9013C52.4674 51.9695 52.4251 52.0399 52.3638 52.0652C52.3638 52.0652 48.9549 53.6305 43.5402 51.9772C43.7349 53.6003 45.7032 54.2154 47.0783 54.4379C53.788 55.5775 60.0607 51.7902 61.4727 50.8365C61.7151 50.6728 61.4697 51.0937 61.4259 51.1555C59.6975 53.3566 55.0505 55.9053 49.0051 55.9042C46.3685 55.9031 43.733 54.9868 42.7657 53.5777C41.2647 51.392 42.691 48.2009 45.1928 48.5331C49.4216 49.0045 53.7569 48.6503 57.6715 46.8567C61.0849 45.2925 62.3742 43.5721 62.1803 42.1785C61.8796 40.0185 58.6773 39.6808 57.0586 39.1557C56.3544 38.9258 56.0067 38.7421 55.9275 37.4342C55.893 36.8633 55.7927 34.8712 55.7559 34.0473C55.6913 32.6052 55.5152 30.6329 54.276 29.8189C53.9529 29.6066 53.5941 29.5043 53.2163 29.4845C52.9151 29.4701 52.7365 29.5115 52.6404 29.5338C52.6189 29.5387 52.6015 29.5428 52.5878 29.545C51.9187 29.6573 51.5086 29.9958 51.0251 30.395C50.9972 30.418 50.9691 30.4412 50.9407 30.4646C49.3951 31.7362 48.0902 31.9441 46.6382 31.8825C46.186 31.8636 45.7199 31.8184 45.2282 31.7708C44.776 31.7269 44.3021 31.681 43.7976 31.6515L43.1814 31.6163C40.7498 31.4931 38.1422 33.5655 37.7087 36.5091C37.2244 39.7947 39.0609 41.8072 40.2552 43.116C40.5503 43.4394 40.8063 43.7199 40.9783 43.966C41.0886 44.1145 41.2167 44.3234 41.2167 44.5225C41.2167 44.7601 41.0607 44.9482 40.9081 45.1088C38.4275 47.6267 37.634 51.6274 38.569 54.9615C38.686 55.3773 38.8342 55.7755 39.0092 56.1561C41.2022 61.215 48.0066 63.5712 54.6527 61.4284C59.3107 59.9265 63.4261 56.2973 64.2642 51.2908C64.4636 49.9862 64.1705 49.4824 63.7716 49.2393C63.3493 48.983 62.8433 49.0721 62.8433 49.0721C62.8433 49.0721 62.6127 47.5134 61.9596 46.0966C60.0217 47.6058 57.5278 48.6662 55.6289 49.2041C52.5865 50.0657 49.3002 50.4011 46.1563 49.9948C44.8812 49.8301 44.0244 49.7194 43.6572 50.897C47.8506 52.4128 52.2891 51.7638 52.2891 51.7638C52.3749 51.755 52.4518 51.8166 52.4607 51.9013ZM40.362 22.4863C38.0686 23.6446 35.5078 25.7071 33.4284 28.0798C33.3548 28.1645 33.4641 28.2811 33.5543 28.2162C35.3507 26.9259 37.8134 25.7269 41.0395 24.9503C44.6535 24.0802 48.1325 24.4454 50.2576 24.9261C50.3646 24.9503 50.4315 24.7688 50.3367 24.716C48.9326 23.9383 46.7774 23.4103 45.2485 23.3993C45.1739 23.3982 45.1315 23.3124 45.1761 23.253C45.4402 22.9021 45.8024 22.5556 46.1333 22.3048C46.2069 22.2476 46.1623 22.1299 46.0687 22.1354C44.1668 22.2507 39.8227 24.2315 39.8383 24.1594C39.9497 23.6314 40.3007 22.934 40.4824 22.6084C40.5258 22.5314 40.4411 22.4467 40.362 22.4863Z" fill="black"/>
</svg>
