<svg width="99" height="32" viewBox="0 0 99 32" fill="none" xmlns="http://www.w3.org/2000/svg">
<g clip-path="url(#clip0_1179_185)">
<mask id="mask0_1179_185" style="mask-type:luminance" maskUnits="userSpaceOnUse" x="0" y="0" width="99" height="32">
<path d="M98.1137 0H0.386475V32H98.1137V0Z" fill="white"/>
</mask>
<g mask="url(#mask0_1179_185)">
<path d="M37.9148 27.9145C34.2784 25.572 29.3433 25.1609 21.3843 27.3691C12.8995 29.363 10.0705 30.6411 6.35528 28.0753C4.92797 26.8149 4.41625 24.7854 4.79836 21.8622C5.68463 17.0967 8.07968 12.5108 12.3339 7.42382C14.7085 4.77761 16.9112 2.50667 19.8198 1.59475C22.0489 1.02268 21.8405 2.77456 21.5708 3.02511C21.2862 3.02511 20.808 3.06995 20.4385 3.31109C20.1386 3.54368 19.3154 4.29471 19.2712 5.30497C19.2074 6.8515 20.8079 6.52961 21.4982 5.68048C22.2423 4.72361 23.342 2.89123 22.477 1.18344C22.1144 0.575579 21.488 0.155474 20.7102 0.012426C18.0469 -0.139784 15.5664 1.12982 13.2773 2.53342C8.27098 6.01117 4.26624 10.8301 2.00019 16.1049C0.693696 19.2875 -0.487826 23.8465 1.28323 27.5571C2.65325 30.1317 5.4976 31.4993 8.89106 31.2133C11.2711 30.9633 14.149 30.194 16.0846 29.7296C18.0202 29.2644 27.9284 25.8585 31.184 31.7862C31.184 31.7862 32.2666 29.6847 34.972 29.6399C37.1963 29.4347 40.405 30.2838 42.7418 32C41.9633 30.8292 39.7561 29.1037 37.9148 27.9145Z" fill="#E61D2A"/>
<path d="M22.3945 8.02273C20.5413 6.80689 16.8167 9.13133 13.8334 13.1185C11.1054 16.6949 9.92743 20.8516 11.2093 22.7738C13.1164 25.0356 16.6565 21.7457 18.162 19.9848L18.3563 19.779C19.3801 18.6793 20.1711 17.3561 20.9366 16.0865C20.9366 16.0865 21.6403 14.9242 21.6739 14.8705C22.1087 14.7903 22.6326 14.6651 23.2228 14.4952C23.2144 14.5218 20.9645 18.3036 21.194 20.1807C21.2655 20.7534 21.2109 22.8454 23.2534 23.48C25.9756 23.9363 28.1493 21.8261 30.0669 19.9486C30.0669 19.9486 30.3937 19.636 30.5785 19.4576C30.5317 19.6448 30.4708 19.8946 30.4708 19.8946C29.6738 22.6662 30.7481 23.2477 31.4201 23.4623C33.451 24.0527 35.8772 21.1022 35.885 21.1022C35.8221 22.0316 35.6381 22.8004 36.6178 23.4173C37.5426 23.7484 38.4784 23.2438 39.1898 22.7699C41.752 20.964 43.8163 18.1376 45.4836 15.6944H44.4201C44.4075 15.6944 41.7958 19.4799 40.0998 20.3027C40.0972 20.3027 39.7886 20.4611 39.6107 20.3358C39.3906 20.1479 39.4774 19.7575 39.6134 19.4809C39.622 19.4628 46.1615 8.12058 46.1615 8.12058H43.0738C43.0738 8.12058 42.7365 8.66627 42.709 8.70206C42.6883 8.68423 42.6388 8.59041 42.6045 8.54545C40.6915 5.89924 36.3593 9.96958 33.0978 14.6898C31.8421 16.5048 30.2434 18.5484 28.5857 20.0235C28.5857 20.0235 26.13 22.2747 25.0806 20.6573C24.6971 19.9777 24.8151 18.9842 25.0314 18.3317C26.2531 14.854 28.3583 11.6978 30.7538 9.79331C31.4301 9.26619 32.1651 9.11374 32.5299 9.33729C32.8774 9.54325 32.9335 10.0524 32.7136 10.4012C32.1557 10.3833 31.7087 10.5529 31.3453 10.9284C30.6295 11.6794 30.3807 12.4037 30.6083 13.0833C31.714 14.6567 33.9191 11.5454 33.8124 9.65014C33.7743 8.97057 33.4118 8.32703 32.8707 8.01382C32.0643 7.53129 30.8342 7.65626 30.0381 8.04094C28.9724 8.44308 27.2854 9.84657 26.3006 10.9374C25.061 12.3055 22.9349 13.8252 22.27 13.655C22.4878 13.0736 24.2837 9.39934 22.3945 8.02273ZM37.2809 13.4583C37.8816 12.627 39.6298 10.4008 40.056 10.0254C41.4894 8.76436 42.0623 9.31921 42.1119 9.71232C40.7742 12.1082 39.1953 14.853 37.7108 17.3206C37.7138 17.3118 37.2462 18.0268 37.2462 18.0268C36.5906 19.0279 35.9304 19.8862 34.8536 20.4852C34.7 20.5301 34.4469 20.5481 34.2785 20.4225C34.0757 20.2884 33.9957 20.0648 34.0185 19.8322C34.083 19.0636 34.8657 16.7128 37.2809 13.4583ZM20.4834 14.8976C20.4834 14.8976 20.4565 14.9783 20.4432 15.0047C20.4398 15.0047 19.097 17.1948 19.097 17.1948C18.2866 18.2768 17.2748 19.636 16.01 20.2884C15.635 20.4136 15.1168 20.4942 14.8527 20.1636C14.2929 19.493 14.5814 18.5632 14.8158 17.8123L14.8988 17.5441C15.5709 15.7205 16.6374 14.1109 17.6753 12.6179C17.6883 12.6091 17.7174 12.6002 17.7279 12.6002C17.7303 12.6091 17.7345 12.6091 17.7363 12.627C18.3877 13.8784 19.609 14.4593 20.5224 14.7279C20.5279 14.7279 20.5337 14.7368 20.5337 14.7548C20.5339 14.7814 20.519 14.8175 20.4834 14.8976ZM21.7556 12.3142C21.7497 12.332 21.1575 13.6908 21.1575 13.6908C21.0719 13.7623 20.9365 13.7266 20.7814 13.6908L20.5155 13.6458C19.6808 13.3867 19.0512 12.8324 18.8571 12.1709C18.5893 10.8835 19.6891 9.8732 20.1737 9.50684C20.6387 9.18471 21.3615 9.01491 21.7812 9.34584C22.0401 9.64989 22.1382 10.0431 22.1382 10.4725C22.1383 11.0535 21.959 11.7061 21.7556 12.3142Z" fill="#E61D2A"/>
<path d="M60.7903 16.4621C60.4926 15.8186 59.7858 15.4072 59.0326 15.4518C56.5866 15.6755 54.1941 17.687 52.938 20.5744C52.2788 22.0587 51.919 23.2833 51.6831 25.2323C52.4437 24.3564 53.9951 22.9171 55.7557 22.1303C55.7557 22.1303 55.9952 20.2618 57.2168 18.5989C57.6791 17.9103 58.6042 16.8018 59.6429 17.0967C60.5504 17.4009 60.2315 19.9131 59.0253 22.3443C58.1328 24.1326 56.767 25.9211 55.3852 27.1545C54.1635 28.1917 52.3559 29.4432 50.7744 28.4778C49.7783 27.888 49.2703 26.6539 49.3776 25.0626C49.8536 20.5479 51.9086 16.7036 54.8496 12.323C57.8821 8.25523 61.2249 4.0802 65.728 1.85373C66.6465 1.38891 67.4971 1.28166 68.2324 1.56775C68.2324 1.56775 64.0052 3.8922 61.9902 8.19256C61.4776 9.28344 60.7647 10.7581 61.4826 12.0635C61.8578 12.7428 62.5239 12.7966 63.0602 12.7608C65.5301 12.1885 67.1259 9.88202 68.4297 7.77233C69.1856 6.17205 69.8575 4.58068 69.8575 2.81048C69.8575 2.59597 69.8464 2.30999 69.8281 2.09524C71.0082 1.46966 73.4279 2.57801 73.4279 2.57801C75.3188 3.20407 79.3451 6.28859 80.7032 6.87837C81.3657 6.10963 82.4544 4.94753 83.0674 4.36629L82.18 3.82086C80.7593 2.95365 79.2576 2.13103 77.7795 1.31757C74.4227 -0.514935 71.6903 0.128598 70.2997 0.629328C69.7532 0.825882 69.2536 0.995805 69.2536 0.995805C68.2216 -0.130624 66.5291 -0.0236119 65.282 0.280564C60.7971 1.56788 56.633 4.70578 52.1687 10.1505C48.8865 14.4151 46.8506 18.0985 45.7655 21.737C44.9291 24.1864 44.6749 27.7894 46.7164 29.9262C48.4522 31.7405 50.7537 31.3475 52.3791 30.6951C55.9006 28.9607 59.0656 25.2235 60.6426 20.9232C61.0232 19.6449 61.4456 17.8391 60.7903 16.4621ZM68.8878 2.98944C68.4216 8.33573 64.2659 11.474 63.2377 11.7239C62.6145 11.8489 61.5513 11.5719 62.5004 9.32827C63.8983 6.30618 66.2848 3.7406 68.8454 2.42629C68.9077 2.64984 68.9061 2.79252 68.8878 2.98944Z" fill="#E61D2A"/>
<path d="M93.5394 3.66855C91.3041 4.93827 88.9868 5.76052 86.1817 5.47455C85.4043 6.35092 84.6474 7.2538 83.9497 8.18343C87.8868 9.18476 92.0607 6.95866 94.3884 4.84006C96.8509 2.70325 98.1137 0.0124512 98.1137 0.0124512C98.1137 0.0124512 96.2679 2.12214 93.5394 3.66855Z" fill="#E61D2A"/>
<path d="M49.639 10.8082L51.2936 8.12073H48.3613L46.7073 10.8082H49.639Z" fill="#E61D2A"/>
<path d="M86.1699 28.1635C85.8546 28.378 85.4116 28.2131 85.5773 27.7215C85.9898 26.4698 87.6299 23.9192 87.6299 23.9192L92.1982 15.8168H89.069C88.9203 16.0612 88.6022 16.6222 88.6022 16.6222C88.4574 16.3811 88.0245 15.8448 87.8463 15.729C87.0818 15.2459 85.9601 15.4743 85.1864 15.9122C81.8222 17.8794 79.3677 21.7659 77.432 24.7968C77.432 24.7968 75.3942 28.1659 74.263 28.4164C73.3799 28.488 73.4711 27.2984 73.5093 27.0213C73.8507 25.0183 74.6437 23.1143 75.4426 21.3888C77.0674 20.2623 78.9218 18.7873 80.607 17.1691C84.2642 13.6732 87.3474 9.71264 87.798 8.82759C87.798 8.82759 87.3102 8.92605 86.7343 8.94377C83.9207 12.8685 78.1631 18.5726 76.4176 19.4218C77.1908 17.5619 82.1868 8.68442 86.4383 4.43793L87.1073 3.79403C88.1418 2.78377 89.2137 1.74677 90.049 1.57684C90.1372 1.56793 90.2508 1.57684 90.3489 1.7828C90.3862 2.56939 90.0934 3.15062 89.7574 3.81211L89.2866 4.77778C89.2866 4.77778 89.9535 4.65256 90.3914 4.50915C90.8996 3.55301 91.4624 2.47984 91.255 1.20169C91.1857 0.790384 90.888 0.477535 90.4989 0.40595C89.2307 0.164563 87.8485 1.10299 86.7363 1.86318L86.6914 1.88981C80.9742 6.3689 76.1465 12.8238 71.9258 21.6389C71.6199 21.871 70.438 22.1485 70.237 22.0142C70.6538 21.1562 71.1786 20.0026 71.4413 18.751C71.4867 18.3933 71.529 18.0269 71.529 17.6694C71.529 16.8999 71.3443 16.176 70.6549 15.6755C69.8467 15.2731 68.8478 15.461 68.1744 15.7648C65.1573 17.0164 62.9024 20.11 61.2752 22.6576C60.4001 24.2762 59.5275 26.0098 59.2858 27.9949C59.1157 29.5502 59.4621 30.5515 60.3464 31.0524C61.2559 31.517 62.4005 31.0341 62.8502 30.8018C65.9067 29.1926 68.0423 25.9654 69.7258 23.0149C69.7927 23.0061 70.7119 22.9795 71.4071 22.8004C71.4164 22.8004 71.4203 22.8004 71.4357 22.8098C71.3958 22.9434 71.0366 24.0165 71.0366 24.0165C69.9696 27.1454 69.4762 29.2734 70.484 30.5337C71.9242 32.313 74.3083 30.4714 76.2479 28.0392C75.8316 30.9537 77.342 31.4098 78.4934 31.1865C79.816 30.8291 81.2899 29.4162 81.9738 28.6923C81.7542 29.5414 81.8139 31.0614 83.0171 31.2133C83.8418 31.3657 84.4589 30.9172 85.1731 30.5326C87.7346 29.1378 90.8009 24.49 91.597 23.1463H90.5532C89.4215 24.8566 87.9814 27.0991 86.1699 28.1635ZM63.1773 27.8522C63.0149 27.6108 62.961 27.3468 62.9556 27.0615C62.9245 25.3085 64.8105 22.1691 66.1418 20.4589C66.1446 20.4589 66.1446 20.4589 66.1446 20.4589C66.7025 21.6805 67.9659 22.4657 68.7285 22.7966C67.7813 24.9067 64.5327 29.4256 63.1773 27.8522ZM69.2631 21.8533C69.1728 21.9162 67.5797 21.3796 67.2719 19.9045C67.0107 18.6346 67.8852 17.6423 68.7313 17.142C69.0945 16.8558 69.6415 16.7577 70.0428 16.9001C70.4153 17.1508 70.5162 17.5982 70.5162 18.0802C70.5162 18.3758 70.477 18.6795 70.4424 18.9566C70.4424 18.9566 70.4358 19.0104 70.4347 19.0194C70.1692 20.0114 69.7631 20.986 69.2631 21.8533ZM82.0404 27.289L81.7382 27.5572C81.3084 27.9414 80.8662 28.3527 80.3324 28.147C80.1849 28.0933 80.0812 27.8969 80.0563 27.7445C80.032 26.6448 80.5272 25.6258 81.0074 24.6337L81.1306 24.3742C82.5119 22.0677 84.1176 19.3499 86.4758 17.4638C86.8731 17.1771 87.3044 16.9362 87.7595 17.1241C87.8642 17.2222 87.9861 17.3922 87.9861 17.5619C87.9861 17.6158 87.9384 17.7587 87.9108 17.8031C87.2522 18.8675 86.6249 19.9849 86.015 21.0576C84.823 23.1766 83.5863 25.3666 82.0404 27.289Z" fill="#E61D2A"/>
</g>
</g>
<defs>
<clipPath id="clip0_1179_185">
<rect width="98" height="32" fill="white" transform="translate(0.25)"/>
</clipPath>
</defs>
</svg>
