<svg width="82" height="81" viewBox="0 0 82 81" fill="none" xmlns="http://www.w3.org/2000/svg">
<g filter="url(#filter0_d_1193_697)">
<path d="M5.77795 30.0237C5.77795 21.3117 5.77795 16.9558 7.47341 13.6282C8.96477 10.7013 11.3445 8.32158 14.2714 6.83022C17.599 5.13477 21.9549 5.13477 30.6669 5.13477H50.8891C59.601 5.13477 63.957 5.13477 67.2845 6.83022C70.2115 8.32158 72.5911 10.7013 74.0825 13.6282C75.778 16.9558 75.778 21.3117 75.778 30.0237V50.2459C75.778 58.9578 75.778 63.3138 74.0825 66.6413C72.5911 69.5683 70.2115 71.9479 67.2845 73.4393C63.957 75.1348 59.601 75.1348 50.8891 75.1348H30.6669C21.9549 75.1348 17.599 75.1348 14.2714 73.4393C11.3445 71.9479 8.96477 69.5683 7.47341 66.6413C5.77795 63.3138 5.77795 58.9578 5.77795 50.2459V30.0237Z" fill="white"/>
<path d="M40.7832 31.262L32.131 15.9927C32.4183 15.7002 32.7488 15.5083 33.0793 15.3794C30.5278 16.2191 29.3571 19.0843 29.3571 19.0843L13.5508 46.9716C13.3284 47.8459 13.2666 48.6353 13.2944 49.3304H30.5464L40.7832 31.262Z" fill="#34A853"/>
<path d="M40.7828 31.262L51.0197 49.3304H68.2716C68.2994 48.6353 68.2376 47.8459 68.0152 46.9716L52.209 19.0843C52.209 19.0843 51.0351 16.2191 48.4867 15.3794C48.8142 15.5083 49.1478 15.7002 49.4351 15.9927L40.7828 31.262Z" fill="#FBBC05"/>
<path d="M40.7827 31.2628L49.4349 15.9935C49.1477 15.7011 48.8141 15.5092 48.4866 15.3803C48.1098 15.2576 47.7051 15.1758 47.2665 15.1538H46.8093H34.7561H34.299C33.8634 15.1727 33.4557 15.2545 33.0788 15.3803C32.7514 15.5092 32.4178 15.7011 32.1305 15.9935L40.7827 31.2628Z" fill="#188038"/>
<path d="M30.549 49.3306L21.9956 64.4269C21.9956 64.4269 21.7114 64.2885 21.3253 64.0023C22.5393 64.9364 23.7193 65.1345 23.7193 65.1345H57.3119C59.1653 65.1345 59.5514 64.4269 59.5514 64.4269C59.5576 64.4237 59.5606 64.4206 59.5668 64.4175L51.0196 49.3306H30.549Z" fill="#4285F4"/>
<path d="M30.5499 49.3306H13.298C13.3845 51.3811 14.2741 52.5794 14.2741 52.5794L14.9228 53.7054C14.9691 53.7714 14.9969 53.8091 14.9969 53.8091L16.4086 56.2875L19.5779 61.8039C19.6705 62.0272 19.7787 62.2316 19.8929 62.4266C19.9362 62.4927 19.9763 62.565 20.0227 62.6279C20.035 62.6468 20.0474 62.6656 20.0597 62.6845C20.452 63.2381 20.8907 63.6658 21.3293 64.0023C21.7154 64.2916 21.9996 64.4269 21.9996 64.4269L30.5499 49.3306Z" fill="#1967D2"/>
<path d="M51.0197 49.3306H68.2716C68.1851 51.3811 67.2954 52.5794 67.2954 52.5794L66.6468 53.7054C66.6004 53.7714 66.5726 53.8091 66.5726 53.8091L65.1609 56.2875L61.9917 61.8039C61.899 62.0272 61.7909 62.2316 61.6766 62.4266C61.6334 62.4927 61.5932 62.565 61.5469 62.6279C61.5345 62.6468 61.5222 62.6656 61.5098 62.6845C61.1175 63.2381 60.6789 63.6658 60.2402 64.0023C59.8541 64.2916 59.5699 64.4269 59.5699 64.4269L51.0197 49.3306Z" fill="#EA4335"/>
</g>
<defs>
<filter id="filter0_d_1193_697" x="3.77795" y="4.13477" width="74" height="74" filterUnits="userSpaceOnUse" color-interpolation-filters="sRGB">
<feFlood flood-opacity="0" result="BackgroundImageFix"/>
<feColorMatrix in="SourceAlpha" type="matrix" values="0 0 0 0 0 0 0 0 0 0 0 0 0 0 0 0 0 0 127 0" result="hardAlpha"/>
<feOffset dy="1"/>
<feGaussianBlur stdDeviation="1"/>
<feColorMatrix type="matrix" values="0 0 0 0 0.0627451 0 0 0 0 0.0941176 0 0 0 0 0.156863 0 0 0 0.05 0"/>
<feBlend mode="normal" in2="BackgroundImageFix" result="effect1_dropShadow_1193_697"/>
<feBlend mode="normal" in="SourceGraphic" in2="effect1_dropShadow_1193_697" result="shape"/>
</filter>
</defs>
</svg>
