<svg width="82" height="81" viewBox="0 0 82 81" fill="none" xmlns="http://www.w3.org/2000/svg">
<path d="M40.8891 75.1348C60.219 75.1348 75.8891 59.4647 75.8891 40.1348C75.8891 20.8048 60.219 5.13477 40.8891 5.13477C21.5591 5.13477 5.88907 20.8048 5.88907 40.1348C5.88907 59.4647 21.5591 75.1348 40.8891 75.1348Z" fill="#0F287F"/>
<path fill-rule="evenodd" clip-rule="evenodd" d="M28.3891 20.1348L15.8891 27.6348L28.3891 35.1348L15.8891 42.6348L28.3891 50.1348L40.8891 42.6348L53.3891 50.1348L65.8891 42.6348L53.3891 35.1348L65.8891 27.6348L53.3891 20.1348L40.8891 27.6348L28.3891 20.1348ZM40.8891 27.6348L53.3891 35.1348L40.8891 42.6348L28.3891 35.1348L40.8891 27.6348Z" fill="#DAF8FE"/>
<path d="M28.3891 55.1348L40.8891 47.6348L53.3891 55.1348L40.8891 62.6348L28.3891 55.1348Z" fill="#DAF8FE"/>
</svg>
