<svg width="105" height="32" viewBox="0 0 105 32" fill="none" xmlns="http://www.w3.org/2000/svg">
<g clip-path="url(#clip0_1179_196)">
<path d="M82.796 11.2754L86.9106 16.0369L90.8718 11.2754H99.3304L91.0638 21.0363L99.4437 30.8769H90.6439L86.5679 26.0777L82.5292 30.8769H74.032L82.3387 21.0769L74.032 11.2754H82.796Z" fill="#FF5900"/>
<path d="M74.0318 11.2755V17.8984H64.6239V23.9758H74.0318V30.8771H57.7101V0H74.0318V6.88254H64.6239V11.2755H74.0318Z" fill="#FF5900"/>
<path d="M50.8253 0V12.6364H50.7493C49.224 10.7968 47.3201 10.157 45.1107 10.157C40.5844 10.157 37.1745 13.3893 35.9779 17.6605C34.6114 12.9541 31.091 10.0685 25.871 10.0685C21.6321 10.0685 18.2843 12.0662 16.5378 15.3218V11.2755H7.77525V6.88254H17.3378V0H-0.0353394V30.8771H7.77525V17.8984H15.561C15.3288 18.8516 15.2044 19.8728 15.2044 20.9509C15.2044 27.3909 19.8912 31.9116 25.871 31.9116C30.9002 31.9116 34.2149 29.4322 35.9668 24.9129H29.2727C28.3676 26.2723 27.6809 26.6742 25.871 26.6742C23.7723 26.6742 21.9622 24.7519 21.9622 22.4728H35.5924C36.1837 27.5882 39.9793 32 45.1868 32C47.4333 32 49.4906 30.8394 50.748 28.8808H50.824V30.88H57.7088V0H50.8253ZM22.1805 17.9898C22.6144 16.0283 24.0638 14.7473 25.8723 14.7473C27.8633 14.7473 29.2381 15.9891 29.6001 17.9898C29.7521 17.9898 22.1805 17.9898 22.1805 17.9898ZM46.6458 26.1766C44.1077 26.1766 42.5298 23.6928 42.5298 21.1002C42.5298 18.3292 43.9018 15.6641 46.6458 15.6641C49.4906 15.6641 50.6236 18.3292 50.6236 21.1002C50.6236 23.7277 49.4229 26.1766 46.6458 26.1766Z" fill="#2A007C"/>
</g>
<defs>
<clipPath id="clip0_1179_196">
<rect width="104" height="32" fill="white" transform="translate(0.5)"/>
</clipPath>
</defs>
</svg>
