<svg width="82" height="81" viewBox="0 0 82 81" fill="none" xmlns="http://www.w3.org/2000/svg">
<path d="M41.0002 75.1348C60.3301 75.1348 76.0002 59.4647 76.0002 40.1348C76.0002 20.8048 60.3301 5.13477 41.0002 5.13477C21.6702 5.13477 6.00015 20.8048 6.00015 40.1348C6.00015 59.4647 21.6702 75.1348 41.0002 75.1348Z" fill="#3290E8"/>
<path fill-rule="evenodd" clip-rule="evenodd" d="M56.0002 20.1348H26.0002C23.2745 20.1305 21.005 22.4141 21.0002 25.1348V55.1348C21.0002 57.8959 23.2394 60.1348 26.0002 60.1348H56.0002C58.7259 60.139 60.9954 57.8555 61.0002 55.1348V25.1348C61.0002 22.3737 58.7621 20.1348 56.0002 20.1348ZM46.3324 27.4681C46.3324 26.7325 46.9304 26.1348 47.6669 26.1348C48.4033 26.1348 49.0002 26.7325 49.0002 27.4681V45.2825C49.0002 46.0181 48.4022 46.6159 47.6669 46.6159C46.961 46.6165 46.3353 45.9908 46.3335 45.2825L46.3324 27.4681ZM39.6658 26.7937C39.6658 26.057 40.2638 25.4603 41.0002 25.4603C41.7366 25.4603 42.3346 26.057 42.3346 26.7937V46.127C42.3346 46.8637 41.7366 47.4603 41.0002 47.4603C40.2943 47.4609 39.6686 46.8352 39.6669 46.127L39.6658 26.7937ZM33.0002 27.4681C33.0002 26.7325 33.5982 26.1348 34.3335 26.1348C35.07 26.1348 35.6669 26.7325 35.6669 27.4681V45.2825C35.6669 46.0181 35.07 46.6159 34.3335 46.6159C33.6276 46.6165 33.002 45.9908 33.0002 45.2825V27.4681ZM26.3335 30.1348C26.3335 29.3981 26.9304 28.8014 27.6669 28.8014C28.4033 28.8014 29.0002 29.3981 29.0002 30.1348V42.127C29.0002 42.8637 28.4022 43.4603 27.6669 43.4603C26.94 43.4615 26.3347 42.8526 26.3335 42.127V30.1348ZM55.2017 50.4725C54.9969 50.6503 50.0567 54.7937 41.0002 54.7937C31.9437 54.7937 27.0068 50.6492 26.7986 50.4714C26.2478 49.9994 26.1826 49.143 26.6547 48.5925C27.1149 48.0568 27.9932 47.9881 28.5307 48.4459C28.6082 48.5114 33.019 52.127 40.9991 52.127C49.0788 52.127 53.4221 48.4848 53.4642 48.4492C54.0009 47.988 54.8824 48.0553 55.3435 48.5925C55.8188 49.142 55.7544 50.0007 55.2017 50.4725ZM55.6669 42.1281C55.6669 42.8637 55.0689 43.4614 54.3335 43.4614C53.6066 43.4626 53.0014 42.8537 53.0002 42.1281V30.1348C53.0002 29.3981 53.5971 28.8014 54.3324 28.8014C55.0689 28.8014 55.6669 29.3981 55.6669 30.1348V42.1281Z" fill="white"/>
</svg>
