<svg width="1046" height="102" viewBox="0 0 1046 102" fill="none" xmlns="http://www.w3.org/2000/svg">
<path d="M523 1C523 24.7762 422.396 70.2308 422.396 101" stroke="#E5E7EB" stroke-linecap="round"/>
<path d="M522.999 1C522.999 24.7762 323.69 70.2308 323.69 101" stroke="#E5E7EB" stroke-linecap="round"/>
<path d="M523 1C523 24.7762 228.782 70.2308 228.782 101" stroke="#E5E7EB" stroke-linecap="round"/>
<path d="M523 1C523 24.7762 114.891 70.2308 114.891 101" stroke="#E5E7EB" stroke-linecap="round"/>
<path d="M523 1C523 24.7762 1 70.2308 1 101" stroke="#E5E7EB" stroke-linecap="round"/>
<path d="M523 1C523 24.7762 1045 70.2308 1045 101" stroke="#E5E7EB" stroke-linecap="round"/>
<path d="M523.001 1C523.001 24.7762 931.109 70.2308 931.109 101" stroke="#E5E7EB" stroke-linecap="round"/>
<path d="M522.999 1C522.999 24.7762 817.217 70.2308 817.217 101" stroke="#E5E7EB" stroke-linecap="round"/>
<path d="M523 1C523 24.7762 722.309 70.2308 722.309 101" stroke="#E5E7EB" stroke-linecap="round"/>
<path d="M522.999 1C522.999 24.7762 623.603 70.2308 623.603 101" stroke="#E5E7EB" stroke-linecap="round"/>
</svg>
