<svg width="49" height="48" viewBox="0 0 49 48" fill="none" xmlns="http://www.w3.org/2000/svg">
<rect x="0.333313" width="48" height="48" rx="24" fill="#E5E7EB"/>
<path d="M30.3333 34H18.3333C16.6765 34 15.3333 32.6569 15.3333 31V29C15.3333 27.3431 16.6765 26 18.3333 26H30.3333C31.9902 26 33.3333 27.3431 33.3333 29V31C33.3333 32.6569 31.9902 34 30.3333 34Z" stroke="#374151" stroke-width="1.5"/>
<path d="M15.3333 20V18C15.3333 15.7909 17.1242 14 19.3333 14H29.3333C31.5425 14 33.3333 15.7909 33.3333 18V20" stroke="#374151" stroke-width="1.5" stroke-linecap="round" stroke-linejoin="round"/>
<path d="M24.3333 26V18M24.3333 18L21.3333 21M24.3333 18L27.3333 21" stroke="#374151" stroke-width="1.5" stroke-linecap="round" stroke-linejoin="round"/>
</svg>
