<svg width="92" height="32" viewBox="0 0 92 32" fill="none" xmlns="http://www.w3.org/2000/svg">
<mask id="mask0_1179_211" style="mask-type:luminance" maskUnits="userSpaceOnUse" x="1" y="0" width="90" height="32">
<path d="M90.9778 0H1.18848V32H90.9778V0Z" fill="white"/>
</mask>
<g mask="url(#mask0_1179_211)">
<path d="M11.0929 31.9869C8.41756 31.8806 6.22872 31.1486 4.51723 29.7889C4.1906 29.5292 3.41227 28.7504 3.15115 28.4219C2.45712 27.5492 1.98526 26.6999 1.67054 25.7575C0.702103 22.8568 1.20052 19.0504 3.09618 14.8729C4.71925 11.2964 7.22373 7.74932 11.5932 2.83657C12.2368 2.11367 14.1535 -0.000488281 14.1659 -0.000488281C14.1705 -0.000488281 14.066 0.180463 13.9345 0.400815C12.7984 2.30379 11.8263 4.54531 11.2968 6.48586C10.4461 9.59962 10.5487 12.2718 11.5973 14.3438C12.3206 15.7712 13.5607 17.0077 14.9552 17.6912C17.3965 18.8873 20.9706 18.9863 25.3355 17.9807C25.636 17.9111 40.5273 13.9581 58.4274 9.19602C76.3275 4.43353 90.9755 0.540078 90.9778 0.543284C90.9828 0.547414 49.3907 18.3449 27.7996 27.5781C24.3803 29.0399 23.4659 29.4091 21.8584 29.9735C17.7492 31.4165 14.0683 32.1051 11.0929 31.9869Z" fill="black"/>
</g>
</svg>
