<svg width="81" height="81" viewBox="0 0 81 81" fill="none" xmlns="http://www.w3.org/2000/svg">
<path fill-rule="evenodd" clip-rule="evenodd" d="M14.7345 73.1792L6.13605 62.4676C4.06728 59.8904 2.94446 56.7213 2.94446 53.4594V14.6722C2.94446 9.78637 6.85342 5.73219 11.8963 5.38789L51.7748 2.66522C54.672 2.46742 57.5515 3.23749 59.9314 4.84652L73.9426 14.3195C76.4506 16.0152 77.9445 18.7872 77.9445 21.7454V65.8427C77.9445 70.6241 74.1009 74.583 69.1636 74.8869L24.9028 77.6114C20.9628 77.854 17.1545 76.194 14.7345 73.1792Z" fill="white"/>
<path d="M28.5649 34.0813V33.5735C28.5649 32.2863 29.5958 31.2187 30.9245 31.13L40.6029 30.4838L53.9873 50.1933V32.8949L50.5422 32.4356V32.1944C50.5422 30.8921 51.5967 29.8175 52.9423 29.7485L61.7486 29.2974V30.5647C61.7486 31.1596 61.3062 31.6685 60.6999 31.771L58.5807 32.1295V60.1438L55.9211 61.0584C53.6992 61.8225 51.2256 61.0046 49.9536 59.0852L36.9598 39.4775V58.1919L40.9593 58.9574L40.9035 59.3283C40.729 60.4904 39.7258 61.3692 38.5121 61.4232L28.5649 61.8659C28.4334 60.6164 29.3699 59.4984 30.6619 59.3627L31.9704 59.2253V34.2726L28.5649 34.0813Z" fill="black"/>
<path fill-rule="evenodd" clip-rule="evenodd" d="M52.132 7.55148L12.2534 10.2741C9.86468 10.4372 8.01306 12.3576 8.01306 14.672V53.4592C8.01306 55.6338 8.76161 57.7465 10.1408 59.4647L18.7392 70.1763C20.1294 71.9081 22.3172 72.8618 24.5806 72.7224L68.8413 69.9979C71.1098 69.8583 72.8758 68.0393 72.8758 65.8425V21.7452C72.8758 20.386 72.1895 19.1124 71.0371 18.3333L57.0259 8.86026C55.598 7.89484 53.8703 7.4328 52.132 7.55148ZM14.2309 15.277C13.6763 14.8664 13.9402 14.0109 14.637 13.9609L52.4002 11.2523C53.6034 11.166 54.799 11.4973 55.7721 12.1867L63.3489 17.5548C63.6366 17.7586 63.5017 18.1986 63.1456 18.218L23.1544 20.3929C21.9442 20.4588 20.7496 20.1032 19.7873 19.3908L14.2309 15.277ZM21.2787 27.2113C21.2787 25.9121 22.3283 24.8389 23.6704 24.7658L65.9524 22.4632C67.2604 22.3919 68.3616 23.3979 68.3616 24.6641V62.8477C68.3616 64.1445 67.3157 65.2166 65.9762 65.2928L23.9619 67.6833C22.5062 67.7662 21.2787 66.6476 21.2787 65.2382V27.2113Z" fill="black"/>
</svg>
