<svg width="82" height="81" viewBox="0 0 82 81" fill="none" xmlns="http://www.w3.org/2000/svg">
<path d="M67.0282 37.6342C70.4797 37.6342 73.2776 34.8362 73.2776 31.3847C73.2776 27.9332 70.4795 25.1353 67.028 25.1353C63.5762 25.1353 60.7776 27.9335 60.7776 31.3853V37.6342H67.0282ZM49.5276 37.6342C52.9794 37.6342 55.7776 34.836 55.7776 31.3842V13.8853C55.7776 10.4335 52.9794 7.63525 49.5276 7.63525C46.0759 7.63525 43.2776 10.4335 43.2776 13.8853V31.3842C43.2776 34.836 46.0759 37.6342 49.5276 37.6342Z" fill="#2EB67D"/>
<path d="M14.5272 42.6353C11.0757 42.6353 8.27771 45.4333 8.27771 48.8848C8.27771 52.3363 11.076 55.1343 14.5275 55.1343C17.9793 55.1343 20.7777 52.3361 20.7777 48.8843V42.6353H14.5272ZM32.0277 42.6353C28.576 42.6353 25.7777 45.4336 25.7777 48.8853V66.3843C25.7777 69.8361 28.576 72.6343 32.0277 72.6343C35.4795 72.6343 38.2777 69.8361 38.2777 66.3843V48.8853C38.2777 45.4336 35.4795 42.6353 32.0277 42.6353Z" fill="#E01E5A"/>
<path d="M43.2783 66.3853C43.2783 69.8368 46.0763 72.6348 49.5278 72.6348C52.9793 72.6348 55.7772 69.8365 55.7772 66.385C55.7772 62.9333 52.979 60.1348 49.5272 60.1348H43.2783V66.3853ZM43.2783 48.8848C43.2783 52.3365 46.0765 55.1348 49.5283 55.1348H67.0272C70.479 55.1348 73.2772 52.3365 73.2772 48.8848C73.2772 45.433 70.479 42.6348 67.0272 42.6348H49.5283C46.0765 42.6348 43.2783 45.433 43.2783 48.8848Z" fill="#ECB22E"/>
<path d="M38.2772 13.8842C38.2772 10.4327 35.4792 7.63477 32.0277 7.63477C28.5762 7.63477 25.7782 10.433 25.7782 13.8845C25.7782 17.3363 28.5765 20.1348 32.0282 20.1348H38.2772V13.8842ZM38.2772 31.3848C38.2772 27.933 35.4789 25.1348 32.0272 25.1348H14.5282C11.0764 25.1348 8.2782 27.933 8.2782 31.3848C8.2782 34.8365 11.0764 37.6348 14.5282 37.6348H32.0271C35.4789 37.6348 38.2772 34.8365 38.2772 31.3848Z" fill="#36C5F0"/>
</svg>
