<svg width="82" height="81" viewBox="0 0 82 81" fill="none" xmlns="http://www.w3.org/2000/svg">
<path d="M7.51324 16.055C5.33337 20.3332 5.33337 25.9337 5.33337 37.1348V43.1348C5.33337 54.3358 5.33337 59.9363 7.51324 64.2146C9.43071 67.9778 12.4903 71.0374 16.2536 72.9549C20.5318 75.1348 26.1323 75.1348 37.3334 75.1348H43.3334C54.5344 75.1348 60.1349 75.1348 64.4132 72.9549C68.1764 71.0374 71.236 67.9778 73.1535 64.2146C75.3334 59.9363 75.3334 54.3358 75.3334 43.1348V37.1348C75.3334 25.9337 75.3334 20.3332 73.1535 16.055C71.236 12.2917 68.1764 9.2321 64.4132 7.31464C60.1349 5.13477 54.5344 5.13477 43.3334 5.13477H37.3334C26.1323 5.13477 20.5318 5.13477 16.2536 7.31464C12.4903 9.2321 9.43071 12.2917 7.51324 16.055Z" fill="url(#paint0_linear_1193_726)"/>
<path d="M5.99642 20.8333C5.33337 24.6015 5.33337 29.6015 5.33337 37.1344V43.1344C5.33337 54.3355 5.33337 59.936 7.51324 64.2142C9.43071 67.9775 12.4903 71.0371 16.2536 72.9545C20.5318 75.1344 26.1323 75.1344 37.3334 75.1344H43.3334C54.5344 75.1344 60.1349 75.1344 64.4132 72.9545C68.1764 71.0371 71.236 67.9775 73.1535 64.2142C75.3334 59.936 75.3334 54.3355 75.3334 43.1344V37.1344C75.3334 25.9334 75.3334 20.3328 73.1535 16.0546C71.3027 12.4223 68.3879 9.44551 64.8034 7.51855L5.99642 20.8333Z" fill="url(#paint1_linear_1193_726)"/>
<path d="M74.6092 59.7695C74.2878 61.4589 73.8236 62.899 73.1535 64.2142C71.2361 67.9774 68.1765 71.037 64.4132 72.9545C60.263 75.0691 54.8685 75.1324 44.324 75.1343H40.4799V67.2264L74.6092 59.7695Z" fill="url(#paint2_linear_1193_726)"/>
<path d="M43.3333 5.13477H37.3333C35.1542 5.13477 33.187 5.13477 31.4003 5.15082V15.0611L64.7968 7.5154C64.6698 7.44715 64.5418 7.38023 64.4131 7.31464C62.038 6.10447 59.2554 5.56613 55.3333 5.32666C52.1905 5.13477 48.316 5.13477 43.3333 5.13477Z" fill="url(#paint3_linear_1193_726)"/>
<path d="M75.3333 43.5683C75.333 51.0822 75.3197 56.0352 74.6091 59.7699L62.7391 62.3634V44.6745L75.3333 41.7456V43.5683Z" fill="url(#paint4_linear_1193_726)"/>
<path fill-rule="evenodd" clip-rule="evenodd" d="M37.6854 33.5795C37.6854 31.9728 38.999 31.3549 41.1747 31.3549C44.2945 31.3549 48.2353 32.3024 51.3552 33.9915V24.3101C47.948 22.9506 44.5819 22.415 41.1747 22.415C32.8415 22.415 27.2997 26.782 27.2997 34.0739C27.2997 45.4443 42.8988 43.6316 42.8988 48.5341C42.8988 50.4292 41.2568 51.0472 38.958 51.0472C35.5508 51.0472 31.1995 49.6465 27.7512 47.7514V57.5563C31.5689 59.2042 35.4276 59.9046 38.958 59.9046C47.4964 59.9046 53.3666 55.6613 53.3666 48.2869C53.3256 36.0101 37.6854 38.1936 37.6854 33.5795Z" fill="white"/>
<defs>
<linearGradient id="paint0_linear_1193_726" x1="5.33337" y1="5.13477" x2="28.325" y2="21.39" gradientUnits="userSpaceOnUse">
<stop stop-color="#392993"/>
<stop offset="1" stop-color="#4B47B9"/>
</linearGradient>
<linearGradient id="paint1_linear_1193_726" x1="7.96935" y1="21.5706" x2="58.7249" y2="63.4368" gradientUnits="userSpaceOnUse">
<stop stop-color="#594BB9"/>
<stop offset="1" stop-color="#60A8F2"/>
</linearGradient>
<linearGradient id="paint2_linear_1193_726" x1="40.4799" y1="67.5194" x2="75.3334" y2="75.1345" gradientUnits="userSpaceOnUse">
<stop stop-color="#61A2EF"/>
<stop offset="1" stop-color="#58E6FD"/>
</linearGradient>
<linearGradient id="paint3_linear_1193_726" x1="31.4003" y1="10.1138" x2="75.3333" y2="5.13477" gradientUnits="userSpaceOnUse">
<stop stop-color="#534EBE"/>
<stop offset="1" stop-color="#6875E2"/>
</linearGradient>
<linearGradient id="paint4_linear_1193_726" x1="62.7391" y1="44.8209" x2="75.3333" y2="59.9046" gradientUnits="userSpaceOnUse">
<stop stop-color="#71A5F3"/>
<stop offset="1" stop-color="#6CC3FA"/>
</linearGradient>
</defs>
</svg>
