<svg width="82" height="81" viewBox="0 0 82 81" fill="none" xmlns="http://www.w3.org/2000/svg">
<path d="M49.1654 47.5392C44.4163 49.3263 39.0945 49.3296 34.3453 47.5403C32.556 42.7964 32.5555 37.4757 34.3425 32.731C39.0905 30.9408 44.4176 30.9405 49.1656 32.7307C50.9543 37.474 50.9535 42.7959 49.1654 47.5392ZM76.291 34.3013H55.8476L70.3024 19.8548C68.0339 16.6702 65.2332 13.8727 62.0466 11.6055L47.5907 26.052V5.62183C43.7326 4.97322 39.7759 4.97421 35.9177 5.62183V26.052L21.4619 11.6055C18.276 13.8711 15.4745 16.6725 13.2058 19.8548L27.6628 34.3013H7.21964C6.71502 38.2726 6.55106 42.0048 7.21964 45.9678H27.6631L13.2061 60.4143C15.4803 63.6037 18.2704 66.392 21.4619 68.6648L35.9177 54.2171V74.6484C39.7763 75.2946 43.7319 75.2949 47.5904 74.6484V54.2171L62.0477 68.6648C65.2357 66.3953 68.0314 63.6001 70.3024 60.4143L55.8454 45.9678H76.291C76.9398 42.1155 76.9398 38.1536 76.291 34.3013Z" fill="#FF4A00"/>
</svg>
